<svg width="97" height="57" viewBox="0 0 97 57" fill="none" xmlns="http://www.w3.org/2000/svg">
<g filter="url(#filter0_d)">
<rect x="4" width="88.9565" height="49" rx="23" fill="#696969"/>
</g>
<path d="M41.4823 28.056C41.1303 28.056 40.8423 27.944 40.6183 27.72C40.3943 27.496 40.2823 27.208 40.2823 26.856V22.344C40.2823 21.992 40.3943 21.704 40.6183 21.48C40.8423 21.256 41.1303 21.144 41.4823 21.144H56.5063C56.8583 21.144 57.1463 21.256 57.3703 21.48C57.5943 21.704 57.7063 21.992 57.7063 22.344V26.856C57.7063 27.208 57.5943 27.496 57.3703 27.72C57.1463 27.944 56.8583 28.056 56.5063 28.056H41.4823Z" fill="#FAFBE3"/>
<defs>
<filter id="filter0_d" x="0" y="0" width="96.9565" height="57" filterUnits="userSpaceOnUse" color-interpolation-filters="sRGB">
<feFlood flood-opacity="0" result="BackgroundImageFix"/>
<feColorMatrix in="SourceAlpha" type="matrix" values="0 0 0 0 0 0 0 0 0 0 0 0 0 0 0 0 0 0 127 0" result="hardAlpha"/>
<feOffset dy="4"/>
<feGaussianBlur stdDeviation="2"/>
<feComposite in2="hardAlpha" operator="out"/>
<feColorMatrix type="matrix" values="0 0 0 0 0 0 0 0 0 0 0 0 0 0 0 0 0 0 0.25 0"/>
<feBlend mode="normal" in2="BackgroundImageFix" result="effect1_dropShadow"/>
<feBlend mode="normal" in="SourceGraphic" in2="effect1_dropShadow" result="shape"/>
</filter>
</defs>
</svg>
