<svg width="30" height="27" viewBox="0 0 30 27" fill="none" xmlns="http://www.w3.org/2000/svg">
<path d="M28.317 9.03008H25.2855L21.0661 1.21961C20.8384 0.798183 20.3053 0.637406 19.8751 0.860525C19.4451 1.08364 19.281 1.60621 19.5087 2.02764L23.2917 9.03008H6.70322L10.4862 2.02764C10.7139 1.60621 10.5498 1.08364 10.1198 0.860525C9.68986 0.637464 9.15651 0.798183 8.92884 1.21961L4.70933 9.03008H1.68305C0.75503 9.03008 0 9.77001 0 10.6795V12.5976C0 13.4687 0.692884 14.1839 1.56698 14.2426L4.52284 26.286C4.61805 26.674 4.97225 26.9475 5.37948 26.9475H24.6147C25.0218 26.9475 25.3758 26.6742 25.4712 26.2864L28.434 14.2425C29.3076 14.1833 30 13.4684 30 12.5976V10.6795C30 9.77001 29.245 9.03008 28.317 9.03008V9.03008ZM1.76217 10.757H28.2378V12.52H1.76217V10.757ZM25.4836 18.8675H21.626L22.2147 14.2469H26.6203L25.4836 18.8675ZM15.8823 25.2206V20.5944H19.6301L19.0407 25.2206H15.8823ZM10.9615 25.2206L10.3716 20.5944H14.1201V25.2206H10.9615ZM3.38048 14.2469H7.78637L8.37558 18.8675H4.51455L3.38048 14.2469ZM9.56216 14.2469H14.1201V18.8675H10.1514L9.56216 14.2469ZM15.8823 18.8675V14.2469H20.4388L19.8502 18.8675H15.8823ZM4.93835 20.5944H8.59573L9.18564 25.2206H6.07378L4.93835 20.5944ZM23.9208 25.2206H20.8166L21.406 20.5944H25.0588L23.9208 25.2206Z" fill="white"/>
</svg>
